<?xml version="1.0" encoding="UTF-8"?>
<!DOCTYPE svg PUBLIC "-//W3C//DTD SVG 1.1//EN" "http://www.w3.org/Graphics/SVG/1.1/DTD/svg11.dtd">
<!-- Creator: CorelDRAW X8 -->
<svg xmlns="http://www.w3.org/2000/svg" xml:space="preserve" width="2009px" height="2252px" version="1.1" style="shape-rendering:geometricPrecision; text-rendering:geometricPrecision; image-rendering:optimizeQuality; fill-rule:evenodd; clip-rule:evenodd"
viewBox="0 0 198619 222618"
 xmlns:xlink="http://www.w3.org/1999/xlink">
 <defs>
  <style type="text/css">
   <![CDATA[
    .str0 {stroke:#332C2B;stroke-width:175.158}
    .str1 {stroke:#332C2B;stroke-width:175.158}
    .str3 {stroke:#00A2E9;stroke-width:175.158}
    .str2 {stroke:black;stroke-width:175.158}
    .fil10 {fill:none}
    .fil4 {fill:#DCDDDD}
    .fil3 {fill:#5F5D5D}
    .fil2 {fill:#474443}
    .fil7 {fill:#27A73A}
    .fil1 {fill:#3E61A5}
    .fil0 {fill:#AAAAAA}
    .fil5 {fill:#DFA513}
    .fil8 {fill:#E01818}
    .fil6 {fill:#F4C81D}
    .fil9 {fill:#FEFEFE;fill-rule:nonzero}
    .fil11 {fill:#332C2B;fill-rule:nonzero}
   ]]>
  </style>
 </defs>
 <g id="图层_x0020_1">
  <metadata id="CorelCorpID_0Corel-Layer"/>
  <path class="fil0 str0" d="M142826 109037c0,0 263,-8062 10924,-7038 12054,1917 12815,19275 12815,19275l-23739 -12237z"/>
  <path class="fil1 str0" d="M140883 106253c-149,-483 248,-1880 420,-1943 0,0 2364,-1261 10819,1208 8456,2468 13485,7802 14903,9955 394,237 -95,1586 -1527,2664 -1432,1077 -24615,-11884 -24615,-11884z"/>
  <path class="fil0 str0" d="M55325 109037c0,0 -262,-8062 -10924,-7038 -12053,1917 -12814,19275 -12814,19275l23738 -12237z"/>
  <path class="fil2 str0" d="M149920 176967c7457,14810 6958,32911 13024,41490 12395,10819 17752,-2311 18907,-11134 1156,-8823 1261,-38340 -735,-56392 -1996,-18053 -6722,-25644 -6722,-25644 0,0 -2942,-9978 -32983,-19747 -303,-99 -605,-196 -906,-293 -29550,-9460 -49977,-8680 -74932,-2753 -25209,5987 -34905,13854 -39914,20062 -7547,8790 -8928,27205 -8928,27205 0,0 -4937,56406 1995,67435 6933,11029 16176,1365 16176,1365 0,0 4832,-8088 6093,-17646 1260,-9559 7037,-24054 7037,-24054 5462,-18592 63601,-48658 101888,106z"/>
  <path class="fil3 str1" d="M152021 174263c7423,-9611 24473,-10959 24841,-33350 -263,-15983 -12744,-28465 -28465,-28465 -15721,0 -28465,12745 -28465,28465 -2090,14790 -7306,20011 -11875,27049 -7668,13996 7778,37866 28996,25157 9454,-7878 7195,-12554 14968,-18856z"/>
  <path class="fil3 str1" d="M45611 174263c-7423,-9611 -24473,-10959 -24841,-33350 263,-15983 12744,-28465 28465,-28465 15721,0 28465,12745 28465,28465 2090,14790 7307,20011 11876,27049 7667,13996 -7779,37866 -28997,25157 -9453,-7878 -7195,-12554 -14968,-18856z"/>
  <polygon class="fil0 str0" points="49387,128411 53880,130272 58374,132133 60235,136627 62096,141121 60235,145614 58374,150108 53880,151969 49387,153830 44893,151969 40400,150108 38538,145614 36677,141121 38538,136627 40400,132133 44893,130272 "/>
  <circle class="fil4 str0" cx="49387" cy="141121" r="9278"/>
  <circle class="fil4 str0" cx="98931" cy="141065" r="3624"/>
  <polygon class="fil5 str0" points="125948,163710 130755,165701 135562,167692 137553,172499 139545,177306 137553,182113 135562,186920 130755,188911 125948,190902 121141,188911 116334,186920 114343,182113 112352,177306 114343,172499 116334,167692 121141,165701 "/>
  <circle class="fil6 str0" cx="125948" cy="177306" r="9278"/>
  <circle class="fil7 str0" cx="148473" cy="141057" r="9874"/>
  <circle class="fil8 str0" cx="130328" cy="150506" r="6092"/>
  <path class="fil0 str0" d="M149063 118276c-6775,-1248 -10849,1775 -12475,3597 -767,859 -1323,2030 -1323,3298 0,2272 1838,4105 4105,4105 765,0 1482,-210 2095,-574 1762,-1098 4176,-2065 6758,-2039 2267,23 4278,-1853 4278,-4120 0,-2067 -1595,-3857 -3438,-4267z"/>
  <path class="fil0 str0" d="M171063 142395c1797,-6650 -884,-10957 -2567,-12726 -794,-835 -1915,-1485 -3179,-1588 -2264,-186 -4241,1496 -4426,3756 -63,763 88,1494 401,2135 951,1845 1717,4331 1481,6902 -208,2258 1497,4414 3757,4600 2060,168 3974,-1275 4533,-3079z"/>
  <path class="fil0 str0" d="M69476 188125l5420 0c546,0 992,-447 992,-993l0 -6229 6229 0c546,0 993,-446 993,-992l0 -5421c0,-545 -447,-992 -993,-992l-6229 0 0 -6229c0,-546 -446,-992 -992,-992l-5420 0c-546,0 -993,446 -993,992l0 6229 -6229 0c-546,0 -992,447 -992,992l0 5421c0,546 446,992 992,992l6229 0 0 6229c0,546 447,993 993,993z"/>
  <path class="fil9" d="M125990 181600c1622,0 2684,-1002 2684,-2696 0,-119 -119,-215 -239,-215l-668 0c-131,0 -238,108 -238,239 0,978 -597,1539 -1539,1539 -620,0 -1109,-311 -1348,-812 -226,-477 -250,-1467 -250,-2349 0,-883 24,-1873 250,-2350 239,-501 728,-811 1348,-811 942,0 1539,561 1539,1539 0,131 107,238 238,238l668 0c120,0 239,-95 239,-215 0,-1693 -1062,-2695 -2684,-2695 -1193,0 -2016,608 -2397,1407 -358,752 -370,1777 -370,2887 0,1109 12,2135 370,2886 381,799 1204,1408 2397,1408z"/>
  <path class="fil9" d="M128892 153187l1417 0c895,0 1608,-613 1608,-1562 0,-437 -230,-919 -544,-1172 -61,-46 -61,-115 0,-169 260,-229 436,-643 436,-1033 0,-881 -650,-1425 -1500,-1425l-1417 0c-84,0 -153,69 -153,153l0 5055c0,84 69,153 153,153zm635 -3155c-46,0 -76,-31 -76,-77l0 -1325c0,-46 30,-76 76,-76l782 0c436,0 750,214 750,697 0,474 -299,781 -750,781l-782 0zm0 2427c-46,0 -76,-30 -76,-76l0 -1585c0,-54 30,-77 76,-77l782 0c482,0 857,390 857,904 0,528 -390,834 -857,834l-782 0z"/>
  <path class="fil9" d="M145529 145677l766 0c119,0 211,-80 251,-198l580 -2020c40,-119 132,-185 251,-185l2191 0c119,0 224,66 251,185l581 2020c39,118 132,198 250,198l766 0c132,0 224,-93 224,-185 0,-80 -13,-132 -39,-225l-2416 -8631c-26,-119 -132,-198 -250,-198l-924 0c-119,0 -225,79 -251,198l-2415 8631c-27,93 -40,145 -40,225 0,92 93,185 224,185zm2125 -3630c-79,0 -132,-40 -105,-145l858 -3682c13,-53 26,-80 52,-80l27 0c26,0 39,27 53,80l858 3682c26,105 -27,145 -106,145l-1637 0z"/>
  <path class="fil9" d="M143342 125740l338 0c66,0 121,-54 121,-120l0 -1574 1001 -2310c24,-61 30,-85 30,-115 0,-60 -54,-102 -108,-102l-399 0c-54,0 -90,24 -114,90l-651 1604c-12,36 -25,55 -49,55 -24,0 -36,-19 -48,-55l-651 -1604c-24,-66 -61,-90 -115,-90l-398 0c-54,0 -109,42 -109,102 0,30 6,54 31,115l1001 2310 0 1574c0,66 54,120 120,120z"/>
  <path class="fil9" d="M164968 138888l410 0c55,0 79,-18 115,-91l724 -1459c24,-48 36,-60 48,-60 12,0 24,12 48,60l730 1459c36,73 60,91 115,91l410 0c60,0 108,-42 108,-109 0,-30 -6,-48 -30,-96l-1013 -1960c-18,-37 -24,-61 -24,-67 0,-12 6,-30 18,-54l923 -1731c18,-36 30,-66 30,-102 0,-55 -49,-103 -109,-103l-386 0c-54,0 -78,18 -114,91l-664 1284c-12,24 -30,48 -42,48 -12,0 -30,-24 -42,-48l-664 -1284c-36,-73 -60,-91 -114,-91l-386 0c-61,0 -109,48 -109,103 0,24 6,54 30,102l923 1731c12,24 18,42 18,54 0,12 -6,30 -24,67l-1007 1960c-24,48 -30,72 -30,102 0,55 48,103 108,103z"/>
  <path class="fil4 str0" d="M145429 9707l-66 -2246c0,0 -2421,-480 -3293,-2443 -872,-1963 2443,-4623 7328,-4885 4885,-262 12649,480 13086,5191 0,0 348,2486 -3795,2704l0 2224 -13260 -545z"/>
  <path class="fil2 str0" d="M62984 11926c0,0 52692,-1047 73280,872 2599,-1756 5728,-2806 9056,-3310 6767,-1023 14357,218 19994,2395 0,0 15616,1046 15790,6717 0,0 1483,8898 1571,15179 87,6281 -1658,41351 -7067,50250 -5408,8898 -13827,9160 -19192,-1440 0,0 -2573,-8331 -2791,-15092l-23598 2050c-6587,1636 -18407,11428 -33936,11777 0,0 -8549,436 -27131,-11079 0,0 -3663,-2530 -12126,-2443l-12300 -1308c0,0 -2966,16749 -5845,19279 -2879,2530 -9160,6979 -15877,-4013 -6718,-10992 -7973,-50445 -7765,-52168 240,-3693 916,-11682 2356,-14743 0,0 11079,-8811 45581,-2923z"/>
  <path class="fil4 str0" d="M24120 34631c0,0 698,-3010 7503,-3184 6804,-175 19977,1003 21940,4885 0,0 1309,13914 872,20152 0,0 -43,1396 -2922,1352 -2879,-44 -16750,393 -22202,-3097 -5452,-3489 -5147,-8287 -5147,-8287l-44 -11821z"/>
  <path class="fil4 str0" d="M174170 36373c0,0 -599,-3031 -7394,-3430 -6795,-398 -19999,346 -22089,4162 0,0 -1765,13863 -1535,20112 0,0 -2,1396 2877,1447 2879,52 16728,944 22292,-2365 5564,-3308 5417,-8113 5417,-8113l432 -11813z"/>
  <path class="fil1 str0" d="M52168 20542c0,0 174,-3184 -4100,-2922 -4275,262 -17491,436 -22289,2050 0,0 -2356,1003 -1876,4711 480,3708 5409,3184 5409,3184 0,0 14350,-480 18276,-1352 3926,-872 4624,-2225 4580,-5671z"/>
  <path class="fil10 str0" d="M58510 11224l-104 -4203c0,0 -567,-2181 -8288,-2137 -7720,44 -9421,654 -9552,1439 -131,786 26,3578 26,3578"/>
  <path class="fil4 str2" d="M58510 11224l-104 -4203c0,0 -567,-2181 -8288,-2137 -7720,44 -9421,654 -9552,1439 -131,786 26,3578 26,3578 4991,-36 10923,326 17918,1323z"/>
  <path class="fil10 str0" d="M23856 22955c0,0 -4757,1419 -8809,6637"/>
  <path class="fil10 str0" d="M52168 20542c5492,-309 12566,2317 12566,2317 11516,4972 23467,4187 23467,4187 0,0 9509,3490 19018,262 0,0 9247,436 25648,-3839 16401,-4274 43131,-2092 49787,9423"/>
  <line class="fil10 str3" x1="12331" y1="44634" x2="39322" y2= "44634" />
  <line class="fil10 str3" x1="12331" y1="22598" x2="39322" y2= "22598" />
  <line class="fil10 str3" x1="158651" y1="44634" x2="185642" y2= "44634" />
  <line class="fil10 str3" x1="148473" y1="141057" x2="188554" y2= "141057" />
  <polyline class="fil10 str3" points="188554,132343 166268,132343 166268,136777 "/>
  <line class="fil10 str3" x1="143883" y1="123629" x2="188554" y2= "123629" />
  <line class="fil10 str3" x1="130328" y1="150506" x2="188554" y2= "150506" />
  <path class="fil11" d="M192386 126760l554 0c109,0 198,-89 198,-198l0 -2580 1641 -3787c39,-99 49,-138 49,-188 0,-99 -89,-168 -178,-168l-652 0c-89,0 -148,40 -188,149l-1068 2629c-19,60 -39,89 -79,89 -39,0 -59,-29 -79,-89l-1068 -2629c-39,-109 -98,-149 -187,-149l-653 0c-89,0 -178,69 -178,168 0,50 10,89 49,188l1642 3787 0 2580c0,109 89,198 197,198z"/>
  <path class="fil11" d="M190600 136291l672 0c89,0 128,-30 188,-148l1186 -2393c40,-79 59,-99 79,-99 20,0 40,20 79,99l1197 2393c59,118 98,148 187,148l673 0c99,0 178,-69 178,-178 0,-49 -10,-79 -50,-158l-1661 -3213c-29,-60 -39,-99 -39,-109 0,-20 10,-49 29,-89l1513 -2838c30,-59 49,-108 49,-168 0,-89 -79,-168 -178,-168l-632 0c-89,0 -129,30 -188,149l-1088 2106c-19,39 -49,79 -69,79 -20,0 -49,-40 -69,-79l-1088 -2106c-59,-119 -98,-149 -187,-149l-633 0c-99,0 -178,79 -178,168 0,40 10,89 49,168l1513 2838c20,40 30,69 30,89 0,20 -10,49 -40,109l-1651 3213c-40,79 -49,118 -49,168 0,89 79,168 178,168z"/>
  <path class="fil11" d="M190445 145238l573 0c89,0 158,-59 188,-148l435 -1512c30,-89 99,-139 188,-139l1641 0c89,0 168,50 188,139l435 1512c29,89 99,148 188,148l573 0c99,0 168,-69 168,-138 0,-59 -10,-99 -30,-168l-1809 -6466c-20,-89 -99,-148 -188,-148l-692 0c-89,0 -168,59 -188,148l-1809 6466c-20,69 -29,109 -29,168 0,69 69,138 168,138zm1591 -2718c-59,0 -99,-30 -79,-109l643 -2758c10,-40 20,-60 39,-60l20 0c20,0 30,20 40,60l642 2758c20,79 -19,109 -79,109l-1226 0z"/>
  <path class="fil11" d="M191094 154571l1829 0c1157,0 2076,-791 2076,-2017 0,-563 -297,-1186 -702,-1513 -79,-59 -79,-148 0,-217 336,-297 564,-830 564,-1335 0,-1137 -841,-1839 -1938,-1839l-1829 0c-109,0 -198,89 -198,198l0 6525c0,109 89,198 198,198zm820 -4073c-59,0 -98,-40 -98,-99l0 -1710c0,-60 39,-99 98,-99l1009 0c563,0 969,276 969,899 0,613 -386,1009 -969,1009l-1009 0zm0 3134c-59,0 -98,-40 -98,-99l0 -2047c0,-69 39,-98 98,-98l1009 0c623,0 1107,504 1107,1166 0,682 -504,1078 -1107,1078l-1009 0z"/>
  <path class="fil11" d="M189800 47767l3678 0c109,0 198,-89 198,-198l0 -524c0,-109 -89,-198 -198,-198l-2758 0c-70,0 -89,-49 -60,-98l2917 -4835c29,-49 49,-99 49,-158l0 -712c0,-109 -89,-198 -198,-198l-3677 0c-109,0 -198,89 -198,198l0 514c0,109 89,198 198,198l2798 0c69,0 89,49 59,99l-2956 4814c-30,50 -50,99 -50,159l0 741c0,109 89,198 198,198z"/>
  <path id="1" class="fil11" d="M195366 47767l3055 0c109,0 198,-89 198,-198l0 -544c0,-108 -89,-197 -198,-197l-2214 0c-60,0 -99,-40 -99,-99l0 -5685c0,-109 -89,-198 -198,-198l-544 0c-109,0 -198,89 -198,198l0 6525c0,109 89,198 198,198z"/>
  <path class="fil11" d="M247 48000l3678 0c109,0 198,-89 198,-197l0 -524c0,-109 -89,-198 -198,-198l-2758 0c-70,0 -89,-49 -60,-99l2917 -4834c30,-50 49,-99 49,-159l0 -712c0,-108 -89,-197 -197,-197l-3678 0c-109,0 -198,89 -198,197l0 515c0,108 89,197 198,197l2798 0c69,0 89,50 59,99l-2956 4815c-30,49 -49,99 -49,158l0 742c0,108 88,197 197,197z"/>
  <path id="1" class="fil11" d="M5813 48000l544 0c109,0 198,-89 198,-197l0 -2472c0,-59 39,-99 99,-99l603 0c109,0 158,60 188,119l1186 2491c40,79 109,158 237,158l603 0c139,0 198,-89 198,-178 0,-69 -20,-118 -39,-158l-1147 -2333c-30,-59 -50,-109 -50,-168 0,-89 79,-158 208,-237 603,-356 1028,-920 1028,-1770 0,-1246 -929,-2076 -2076,-2076l-1780 0c-108,0 -197,89 -197,197l0 6526c0,108 89,197 197,197zm841 -3707c-60,0 -99,-40 -99,-99l0 -2076c0,-59 39,-99 99,-99l939 0c603,0 1107,415 1107,1137 0,722 -504,1137 -1107,1137l-939 0z"/>
  <line class="fil10 str3" x1="39322" y1="44634" x2="12331" y2= "44634" />
  <path class="fil11" d="M5813 25614l544 0c109,0 198,-89 198,-198l0 -2471c0,-60 39,-99 99,-99l603 0c109,0 158,59 188,119l1186 2491c40,79 109,158 237,158l603 0c139,0 198,-89 198,-178 0,-69 -20,-118 -39,-158l-1147 -2333c-30,-60 -50,-109 -50,-168 0,-89 79,-159 208,-238 603,-356 1028,-919 1028,-1769 0,-1246 -929,-2077 -2076,-2077l-1780 0c-108,0 -197,89 -197,198l0 6525c0,109 89,198 197,198zm841 -3707c-60,0 -99,-40 -99,-99l0 -2076c0,-60 39,-99 99,-99l939 0c603,0 1107,415 1107,1137 0,721 -504,1137 -1107,1137l-939 0z"/>
 </g>
</svg>
